<?xml version="1.0" encoding="UTF-8" standalone="no"?>
<svg
   xmlns:dc="http://purl.org/dc/elements/1.1/"
   xmlns:cc="http://creativecommons.org/ns#"
   xmlns:rdf="http://www.w3.org/1999/02/22-rdf-syntax-ns#"
   xmlns:svg="http://www.w3.org/2000/svg"
   xmlns="http://www.w3.org/2000/svg"
   xmlns:sodipodi="http://sodipodi.sourceforge.net/DTD/sodipodi-0.dtd"
   xmlns:inkscape="http://www.inkscape.org/namespaces/inkscape"
   width="135pt"
   height="135pt"
   viewBox="0 0 135 135"
   version="1.1"
   id="svg95"
   sodipodi:docname="oxford copyleft.svg"
   inkscape:version="1.0.2 (e86c870879, 2021-01-15)"
   inkscape:export-filename="/home/stsav012/PycharmProjects/VeriCold data log file parser/images/main.png"
   inkscape:export-xdpi="600"
   inkscape:export-ydpi="600">
  <metadata
     id="metadata99">
    <rdf:RDF>
      <cc:Work
         rdf:about="">
        <dc:format>image/svg+xml</dc:format>
        <dc:type
           rdf:resource="http://purl.org/dc/dcmitype/StillImage" />
        <dc:title />
      </cc:Work>
    </rdf:RDF>
  </metadata>
  <sodipodi:namedview
     pagecolor="#ffffff"
     bordercolor="#666666"
     borderopacity="1"
     objecttolerance="10"
     gridtolerance="10"
     guidetolerance="10"
     inkscape:pageopacity="0"
     inkscape:pageshadow="2"
     inkscape:window-width="1920"
     inkscape:window-height="1010"
     id="namedview97"
     showgrid="false"
     fit-margin-top="0"
     fit-margin-left="0"
     fit-margin-right="0"
     fit-margin-bottom="0"
     inkscape:snap-bbox="true"
     inkscape:snap-bbox-edge-midpoints="true"
     inkscape:snap-midpoints="true"
     inkscape:zoom="2.4131664"
     inkscape:cx="76.387297"
     inkscape:cy="96.271644"
     inkscape:window-x="0"
     inkscape:window-y="0"
     inkscape:window-maximized="1"
     inkscape:current-layer="svg95"
     inkscape:document-rotation="0" />
  <defs
     id="defs8">
    <inkscape:path-effect
       effect="skeletal"
       id="path-effect994"
       is_visible="true"
       lpeversion="1"
       pattern="m -1.3102617,6.548567 c 0,-2.76 2.23999997,-5 5,-5 2.76,0 5,2.24 5,5 0,2.76 -2.24,5 -5,5 -2.76000003,0 -5,-2.24 -5,-5 z"
       copytype="single_stretched"
       prop_scale="1"
       scale_y_rel="false"
       spacing="0"
       normal_offset="0"
       tang_offset="0"
       prop_units="false"
       vertical_pattern="false"
       hide_knot="false"
       fuse_tolerance="0" />
    <inkscape:path-effect
       effect="spiro"
       id="path-effect992"
       is_visible="true"
       lpeversion="1" />
    <inkscape:path-effect
       effect="spiro"
       id="path-effect988"
       is_visible="true"
       lpeversion="1" />
    <inkscape:path-effect
       effect="skeletal"
       id="path-effect161"
       is_visible="true"
       lpeversion="1"
       pattern="M 0,5 C 0,2.24 2.24,0 5,0 7.76,0 10,2.24 10,5 10,7.76 7.76,10 5,10 2.24,10 0,7.76 0,5 Z"
       copytype="single_stretched"
       prop_scale="1"
       scale_y_rel="false"
       spacing="0"
       normal_offset="0"
       tang_offset="0"
       prop_units="false"
       vertical_pattern="false"
       hide_knot="false"
       fuse_tolerance="0" />
    <inkscape:path-effect
       effect="bspline"
       id="path-effect159"
       is_visible="true"
       lpeversion="1"
       weight="33.333333"
       steps="2"
       helper_size="0"
       apply_no_weight="true"
       apply_with_weight="true"
       only_selected="false" />
    <inkscape:path-effect
       effect="skeletal"
       id="path-effect155"
       is_visible="true"
       lpeversion="1"
       pattern="M 0,5 C 0,2.24 2.24,0 5,0 7.76,0 10,2.24 10,5 10,7.76 7.76,10 5,10 2.24,10 0,7.76 0,5 Z"
       copytype="single_stretched"
       prop_scale="1"
       scale_y_rel="false"
       spacing="0"
       normal_offset="0"
       tang_offset="0"
       prop_units="false"
       vertical_pattern="false"
       hide_knot="false"
       fuse_tolerance="0" />
    <inkscape:path-effect
       effect="spiro"
       id="path-effect153"
       is_visible="true"
       lpeversion="1" />
    <clipPath
       id="clip1">
      <path
         d="m 659,0 h 83.80078 V 246 H 659 Z m 0,0"
         id="path2" />
    </clipPath>
    <clipPath
       id="clip2">
      <path
         d="m 386,293 h 40 v 55.10937 h -40 z m 0,0"
         id="path5" />
    </clipPath>
  </defs>
  <path
     style="fill:#282e70;fill-opacity:1;fill-rule:nonzero;stroke:none;stroke-width:0.999997"
     d="M 0,0 H 135 V 135 H 0 V 0"
     id="path10" />
  <path
     style="fill:none;stroke:#ffffff;stroke-width:18.75;stroke-linecap:round;stroke-linejoin:miter;stroke-miterlimit:4;stroke-dasharray:none;stroke-opacity:1"
     d="m 22.521907,50.798362 c 3.350658,-8.714015 9.392722,-16.371648 17.088264,-21.657441 7.695542,-5.285793 17.011479,-8.177023 26.347483,-8.177023 9.336003,0 18.65194,2.89123 26.347482,8.177023 7.695544,5.285793 13.737604,12.943426 17.088264,21.657441 4.08728,10.629747 4.08728,22.773529 0,33.403276 -3.35066,8.714015 -9.39272,16.371652 -17.088264,21.657442 -7.695542,5.28579 -17.011479,8.17702 -26.347483,8.17702 -9.336003,0 -18.65194,-2.89123 -26.347482,-8.17702 C 31.914629,100.57329 25.872565,92.915653 22.521907,84.201638"
     id="path986"
     inkscape:path-effect="#path-effect988"
     inkscape:original-d="m 22.521907,50.798362 c 28.957887,7.21e-4 57.915056,7.21e-4 86.871493,0 28.95645,-7.22e-4 7.2e-4,22.269572 0,33.403276 -7.2e-4,11.133702 -57.913605,7.21e-4 -86.871493,0" />
  <path
     style="fill:#282e70;fill-opacity:1;stroke:none;stroke-width:0.75px;stroke-linecap:butt;stroke-linejoin:miter;stroke-opacity:1"
     d="m 49.962054,30.920816 c -0.575605,-1.128859 6.298457,-7.458546 20.541267,-7.787785 6.527269,-0.147683 14.440654,1.286006 22.133191,5.673938 6.293984,3.59543 12.226338,9.091774 16.449068,16.38973 3.78908,6.559023 6.04993,14.360556 6.05288,22.58795 0,2e-6 0,3e-6 0,4e-6 -0.003,8.227392 -2.2638,16.028924 -6.05288,22.587945 -4.22273,7.297956 -10.155085,12.794302 -16.449068,16.389732 -7.692537,4.38793 -15.605922,5.82162 -22.133191,5.67394 0,0 -5e-6,-10e-6 -5e-6,-10e-6 -14.242813,-0.32923 -21.116876,-6.65893 -20.54127,-7.78778 0.575605,-1.12886 8.253734,2.53612 20.283148,1.18052 0,-10e-6 4e-6,-10e-6 4e-6,-10e-6 5.508722,-0.61756 11.92296,-2.4861 17.867145,-6.451901 4.859939,-3.236946 9.389818,-7.9012 12.523877,-13.737189 2.81804,-5.236399 4.50518,-11.461728 4.50224,-17.855248 0,0 0,-10e-7 0,-2e-6 0.003,-6.393523 -1.6842,-12.618853 -4.50224,-17.855252 C 97.502162,44.093408 92.972283,39.429154 88.112344,36.192207 82.168159,32.226407 75.753921,30.357865 70.245198,29.7403 58.215787,28.384696 50.537659,32.049675 49.962054,30.920816 Z"
     id="path990"
     inkscape:path-effect="#path-effect992;#path-effect994"
     inkscape:original-d="M 49.962054,30.920816 C 70.021604,43.209511 90.080403,55.497454 110.13846,67.784649 130.1965,80.071842 70.021604,92.36129 49.962054,104.64848" />
</svg>
